<?xml version="1.0" encoding="utf-8"?>
<svg viewBox="0 0 450 390" xmlns="http://www.w3.org/2000/svg">
  <defs>
    <radialGradient gradientUnits="userSpaceOnUse" cx="2231.236" cy="1995.876" r="1454.685" id="gradient-0" gradientTransform="matrix(1, 0, 0, 1, 18.764153, 0)">
      <stop offset="0" style="stop-color: rgba(136, 135, 135, 1)"/>
      <stop offset="1" style="stop-color: rgba(85, 84, 84, 1)"/>
    </radialGradient>
    <radialGradient gradientUnits="userSpaceOnUse" cx="1789.288" cy="1682.588" r="209.288" id="gradient-2">
      <stop offset="0" style="stop-color: rgba(136, 135, 135, 1)"/>
      <stop offset="1" style="stop-color: rgba(85, 84, 84, 1)"/>
    </radialGradient>
    <radialGradient gradientUnits="userSpaceOnUse" cx="2678.773" cy="1681.666" r="208.773" id="gradient-1">
      <stop offset="0" style="stop-color: rgba(136, 135, 135, 1)"/>
      <stop offset="1" style="stop-color: rgba(85, 84, 84, 1)"/>
    </radialGradient>
    <radialGradient gradientUnits="userSpaceOnUse" cx="2220.52" cy="-831.287" r="258.249" id="gradient-3" gradientTransform="matrix(1, 0, 0, -1, 29.481343, 0)">
      <stop offset="0" style="stop-color: rgba(136, 135, 135, 1)"/>
      <stop offset="1" style="stop-color: rgba(85, 84, 84, 1)"/>
    </radialGradient>
    <radialGradient gradientUnits="userSpaceOnUse" cx="2209.249" cy="-763.656" r="259.249" id="gradient-4" gradientTransform="matrix(1, 0, 0, 1, 11.271729, -822.332886)">
      <stop offset="0" style="stop-color: rgba(88, 88, 88, 1)"/>
      <stop offset="1" style="stop-color: rgba(37, 37, 37, 1)"/>
    </radialGradient>
  </defs>
  <g transform="matrix(0.1, 0, 0, -0.1, 0, 390)" fill="#A45D5D" stroke="none">
    <path d="M 1535.764 3433 C 1539.264 3438.5 1537.264 3445.25 1561.764 3418.75 C 1586.264 3392.25 1637.264 3332.5 1746.764 3205 C 1863.764 3069.5 1931.514 2992 1974.639 2946 C 2017.764 2900 2036.264 2885.5 2054.764 2876 C 2064.764 2871.5 2084.264 2867.25 2112.139 2863.5 C 2140.014 2859.75 2176.264 2856.5 2219.764 2854 C 2321.264 2849 2384.264 2851.5 2435.639 2872.25 C 2487.014 2893 2526.764 2932 2581.764 3000 C 2612.264 3037 2704.764 3140.5 2791.639 3236.125 C 2878.514 3331.75 2959.764 3419.5 2967.764 3425 C 2972.764 3428 2978.264 3422.5 3002.514 3365.25 C 3026.764 3308 3069.764 3199 3149.764 2995 C 3247.764 2745 3293.514 2630.5 3313.014 2567.875 C 3332.514 2505.25 3325.764 2494.5 3318.764 2452 L 3312.764 2415.5 L 3306.764 2379 L 3386.764 2190.5 L 3466.764 2002 C 3589.264 1712 3651.514 1564.5 3681.014 1487.5 C 3710.514 1410.5 3707.264 1404 3698.764 1396 C 3691.764 1389 3653.764 1366.25 3570.264 1319.375 C 3486.764 1272.5 3357.764 1201.5 3168.764 1098 L 3081.264 1049.5 L 2993.764 1001 L 2956.764 936.5 L 2919.764 872 C 2899.764 836 2877.514 799.5 2857.639 769.625 C 2837.764 739.75 2820.264 716.5 2809.764 707 C 2785.764 683.5 2724.514 643 2668.764 610.5 C 2613.014 578 2562.764 553.5 2560.764 562 C 2559.764 568 2575.514 628.5 2607.764 742.875 C 2640.014 857.25 2688.764 1025.5 2753.764 1247 C 2767.264 1292 2780.014 1332.75 2789.889 1362.25 C 2799.764 1391.75 2806.764 1410 2808.764 1410 C 2810.764 1410 2816.764 1399.5 2824.889 1382.625 C 2833.014 1365.75 2843.264 1342.5 2853.764 1317 C 2864.264 1292 2874.014 1268.5 2881.389 1251.125 C 2888.764 1233.75 2893.764 1222.5 2894.764 1222 C 2895.764 1220.5 2991.014 1271.5 3087.514 1324.125 C 3184.014 1376.75 3281.764 1431 3287.764 1436 C 3288.764 1437 3283.764 1445 3274.889 1457 C 3266.014 1469 3253.264 1485 3238.764 1502 C 3223.764 1519.5 3208.764 1537.25 3196.514 1551.75 C 3184.264 1566.25 3174.764 1577.5 3170.764 1582 C 3164.764 1589.5 3163.764 1595.25 3174.764 1606.125 C 3185.764 1617 3208.764 1633 3250.764 1661 C 3276.264 1678 3299.764 1693.75 3317.014 1705.375 C 3334.264 1717 3345.264 1724.5 3345.764 1725 C 3348.264 1726.5 3314.014 1812.75 3275.264 1906.5 C 3236.514 2000.25 3193.264 2101.5 3177.764 2133 C 3152.264 2183.5 3124.014 2230.75 3092.764 2274.625 C 3061.514 2318.5 3027.264 2359 2989.764 2396 L 2954.264 2431 L 2918.764 2466 L 2943.764 2492 L 2968.764 2518 C 3004.764 2556.5 3026.014 2590.25 3033.764 2626.5 C 3041.514 2662.75 3035.764 2701.5 3017.764 2750 C 3012.264 2765 3001.764 2794.25 2989.389 2829.375 C 2977.014 2864.5 2962.764 2905.5 2949.764 2944 L 2926.264 3013 L 2902.764 3082 L 2877.764 3053 L 2852.764 3024 C 2773.764 2932 2726.014 2874.25 2697.139 2833.25 C 2668.264 2792.25 2658.264 2768 2654.764 2743 C 2648.264 2694.5 2644.264 2669.25 2637.514 2654.625 C 2630.764 2640 2621.264 2636 2603.764 2630 C 2583.264 2623 2559.264 2606.5 2537.514 2585.75 C 2515.764 2565 2496.264 2540 2484.764 2516 C 2480.264 2506 2464.264 2443.5 2442.264 2350.75 C 2420.264 2258 2392.264 2135 2363.764 2004 C 2335.264 1873.5 2308.514 1753.5 2288.389 1665.375 C 2268.264 1577.25 2254.764 1521 2252.764 1518 C 2247.764 1510 2245.514 1505 2230.014 1567.875 C 2214.514 1630.75 2185.764 1761.5 2127.764 2025 C 2100.264 2151.5 2073.014 2271 2051.389 2361.75 C 2029.764 2452.5 2013.764 2514.5 2008.764 2526 C 1999.264 2548 1983.264 2569 1962.514 2587.5 C 1941.764 2606 1916.264 2622 1887.764 2634 C 1871.264 2641 1862.514 2645.25 1857.764 2654.125 C 1853.014 2663 1852.264 2676.5 1851.764 2702 C 1850.264 2747.5 1843.764 2780 1819.514 2820.125 C 1795.264 2860.25 1753.264 2908 1680.764 2984 L 1640.764 3026.5 L 1600.764 3069 L 1582.264 3020.5 L 1563.764 2972 C 1540.264 2911 1511.514 2830.5 1488.639 2763.125 C 1465.764 2695.75 1448.764 2641.5 1448.764 2633 C 1448.764 2629.5 1456.014 2617.5 1467.639 2601 C 1479.264 2584.5 1495.264 2563.5 1512.764 2542 L 1544.764 2502.5 L 1576.764 2463 L 1549.764 2436 L 1522.764 2409 C 1472.264 2359.5 1420.014 2290.5 1367.389 2204.625 C 1314.764 2118.75 1261.764 2016 1209.764 1899 C 1166.264 1800 1144.014 1755.5 1145.764 1728.75 C 1147.514 1702 1173.264 1693 1225.764 1665 C 1249.764 1652 1273.014 1639 1291.139 1628.625 C 1309.264 1618.25 1322.264 1610.5 1325.764 1608 C 1330.264 1604.5 1329.014 1597 1320.764 1583.375 C 1312.514 1569.75 1297.264 1550 1273.764 1522 C 1255.764 1500.5 1239.514 1480.75 1227.764 1466 C 1216.014 1451.25 1208.764 1441.5 1208.764 1440 C 1208.764 1436 1304.514 1381.25 1401.139 1328 C 1497.764 1274.75 1595.264 1223 1598.764 1225 C 1600.264 1226 1606.514 1238.75 1615.514 1258.5 C 1624.514 1278.25 1636.264 1305 1648.764 1334 C 1660.764 1363 1672.014 1389.25 1680.389 1408 C 1688.764 1426.75 1694.264 1438 1694.764 1437 C 1696.264 1436 1726.764 1328.5 1767.764 1181.875 C 1808.764 1035.25 1860.264 849.5 1903.764 692 C 1913.764 655 1922.264 621 1928.014 596 C 1933.764 571 1936.764 555 1935.764 554 C 1933.264 551 1894.514 571.25 1846.139 599.125 C 1797.764 627 1739.764 662.5 1698.764 690 C 1675.264 706 1659.264 719.25 1642.889 739.5 C 1626.514 759.75 1609.764 787 1584.764 831 C 1544.764 902 1514.514 950 1486.139 984.875 C 1457.764 1019.75 1431.264 1041.5 1398.764 1060 C 1383.764 1069 1339.764 1094.25 1280.889 1127.75 C 1222.014 1161.25 1148.264 1203 1073.764 1245 C 999.764 1287 931.264 1326.75 880.764 1357 C 830.264 1387.25 797.764 1408 795.764 1412 C 791.764 1418 814.264 1482 873.139 1627.75 C 932.014 1773.5 1027.264 2001 1168.764 2334 C 1184.264 2371 1193.264 2394.75 1197.514 2412.375 C 1201.764 2430 1201.264 2441.5 1197.764 2454 C 1189.264 2484 1187.264 2508.5 1197.389 2551.75 C 1207.514 2595 1229.764 2657 1269.764 2762 C 1311.264 2872 1375.264 3035.75 1430.139 3174 C 1485.014 3312.25 1530.764 3425 1535.764 3433 Z" style="paint-order: stroke; filter: none; fill: url(#gradient-0);"/>
    <path d="M1580 1876 c0 -25 77 -209 93 -224 12 -11 61 -34 109 -51 108 -37 138 -53 184 -93 30 -26 36 -29 31 -13 -3 11 -15 65 -27 120 -25 114 -32 130 -61 146 -18 9 -318 119 -326 119 -2 0 -3 -2 -3 -4z" style="paint-order: stroke; filter: none; fill: url(#gradient-2);"/>
    <path d="M2717 1821 c-86 -31 -164 -64 -173 -73 -13 -13 -73 -226 -74 -262 0 -6 15 4 33 21 38 37 84 60 192 98 44 15 90 37 102 49 12 12 35 59 51 106 17 47 33 93 37 103 4 9 3 17 -1 16 -5 0 -80 -26 -167 -58z" style="paint-order: stroke; filter: none; fill: url(#gradient-1);"/>
    <path d="M 1991.751 906.371 L 2250 906.371 L 2508.248 906.371 L 2508.248 831.287 L 2508.248 756.203 L 2250 756.203 L 1991.751 756.203 L 1991.751 831.287 Z" style="paint-order: stroke; filter: none; fill: url(#gradient-3);"/>
    <path d="M 2480.268 -907.871 L 2480.268 -754.703 L 1960.771 -754.703 L 1960.771 -907.871 Z M 1961.771 -755.703 L 2479.268 -755.703 L 2479.268 -906.871 L 1961.771 -906.871 Z" style="fill: none;" transform="matrix(1, 0, 0, -1, 0, 0)"/>
    <path d="M 2480.268 153.168 L 2480.268 0 L 1960.771 0 L 1960.771 153.168 L 2480.268 153.168 Z M 1961.771 1 L 2479.268 1 L 2479.268 152.168 L 1961.771 152.168 L 1961.771 1 Z" style="fill: url(#gradient-4);"/>
  </g>
</svg>