<?xml version="1.0" encoding="utf-8"?>
<svg viewBox="0 0 450 390" xmlns="http://www.w3.org/2000/svg">
  <defs>
    <radialGradient gradientUnits="userSpaceOnUse" cx="2231.236" cy="1995.876" r="1454.685" id="gradient-7" gradientTransform="matrix(1.422295, -0.185965, 0.129646, 0.99156, -1200.997993, 431.775977)">
      <stop offset="0" style="stop-color: rgba(255, 255, 255, 1)"/>
      <stop offset="1" style="stop-color: rgba(204, 204, 204, 1)"/>
    </radialGradient>
    <radialGradient gradientUnits="userSpaceOnUse" cx="1789.288" cy="1682.588" r="209.288" id="gradient-6">
      <stop offset="0" style="stop-color: rgba(255, 255, 255, 1)"/>
      <stop offset="1" style="stop-color: rgba(204, 204, 204, 1)"/>
    </radialGradient>
    <radialGradient gradientUnits="userSpaceOnUse" cx="2678.773" cy="1681.666" r="208.773" id="gradient-5">
      <stop offset="0" style="stop-color: rgba(255, 255, 255, 1)"/>
      <stop offset="1" style="stop-color: rgba(204, 204, 204, 1)"/>
    </radialGradient>
    <radialGradient gradientUnits="userSpaceOnUse" cx="2220.52" cy="-831.287" r="259.249" id="gradient-8" gradientTransform="matrix(1, 0, 0, 1, 0.000244, 0.000122)">
      <stop offset="0" style="stop-color: rgba(255, 255, 255, 1)"/>
      <stop offset="1" style="stop-color: rgba(204, 204, 204, 1)"/>
    </radialGradient>
    <radialGradient gradientUnits="userSpaceOnUse" cx="2209.249" cy="-763.656" r="259.249" id="gradient-4" gradientTransform="matrix(1, 0, 0, 1, 11.271729, -822.332886)">
      <stop offset="0" style="stop-color: rgba(88, 88, 88, 1)"/>
      <stop offset="1" style="stop-color: rgba(37, 37, 37, 1)"/>
    </radialGradient>
  </defs>
  <g transform="matrix(0.1, 0, 0, -0.1, 0, 390)" fill="#A45D5D" stroke="none">
    <path d="M 1517 3433 C 1520.5 3438.5 1518.5 3445.25 1543 3418.75 C 1567.5 3392.25 1618.5 3332.5 1728 3205 C 1845 3069.5 1912.75 2992 1955.875 2946 C 1999 2900 2017.5 2885.5 2036 2876 C 2046 2871.5 2065.5 2867.25 2093.375 2863.5 C 2121.25 2859.75 2157.5 2856.5 2201 2854 C 2302.5 2849 2365.5 2851.5 2416.875 2872.25 C 2468.25 2893 2508 2932 2563 3000 C 2593.5 3037 2686 3140.5 2772.875 3236.125 C 2859.75 3331.75 2941 3419.5 2949 3425 C 2954 3428 2959.5 3422.5 2983.75 3365.25 C 3008 3308 3051 3199 3131 2995 C 3229 2745 3274.75 2630.5 3294.25 2567.875 C 3313.75 2505.25 3307 2494.5 3300 2452 L 3294 2415.5 L 3288 2379 L 3368 2190.5 L 3448 2002 C 3570.5 1712 3632.75 1564.5 3662.25 1487.5 C 3691.75 1410.5 3688.5 1404 3680 1396 C 3673 1389 3635 1366.25 3551.5 1319.375 C 3468 1272.5 3339 1201.5 3150 1098 L 3062.5 1049.5 L 2975 1001 L 2938 936.5 L 2901 872 C 2881 836 2858.75 799.5 2838.875 769.625 C 2819 739.75 2801.5 716.5 2791 707 C 2767 683.5 2705.75 643 2650 610.5 C 2594.25 578 2544 553.5 2542 562 C 2541 568 2556.75 628.5 2589 742.875 C 2621.25 857.25 2670 1025.5 2735 1247 C 2748.5 1292 2761.25 1332.75 2771.125 1362.25 C 2781 1391.75 2788 1410 2790 1410 C 2792 1410 2798 1399.5 2806.125 1382.625 C 2814.25 1365.75 2824.5 1342.5 2835 1317 C 2845.5 1292 2855.25 1268.5 2862.625 1251.125 C 2870 1233.75 2875 1222.5 2876 1222 C 2877 1220.5 2972.25 1271.5 3068.75 1324.125 C 3165.25 1376.75 3263 1431 3269 1436 C 3270 1437 3265 1445 3256.125 1457 C 3247.25 1469 3234.5 1485 3220 1502 C 3205 1519.5 3190 1537.25 3177.75 1551.75 C 3165.5 1566.25 3156 1577.5 3152 1582 C 3146 1589.5 3145 1595.25 3156 1606.125 C 3167 1617 3190 1633 3232 1661 C 3257.5 1678 3281 1693.75 3298.25 1705.375 C 3315.5 1717 3326.5 1724.5 3327 1725 C 3329.5 1726.5 3295.25 1812.75 3256.5 1906.5 C 3217.75 2000.25 3174.5 2101.5 3159 2133 C 3133.5 2183.5 3105.25 2230.75 3074 2274.625 C 3042.75 2318.5 3008.5 2359 2971 2396 L 2935.5 2431 L 2900 2466 L 2925 2492 L 2950 2518 C 2986 2556.5 3007.25 2590.25 3015 2626.5 C 3022.75 2662.75 3017 2701.5 2999 2750 C 2993.5 2765 2983 2794.25 2970.625 2829.375 C 2958.25 2864.5 2944 2905.5 2931 2944 L 2907.5 3013 L 2884 3082 L 2859 3053 L 2834 3024 C 2755 2932 2707.25 2874.25 2678.375 2833.25 C 2649.5 2792.25 2639.5 2768 2636 2743 C 2629.5 2694.5 2625.5 2669.25 2618.75 2654.625 C 2612 2640 2602.5 2636 2585 2630 C 2564.5 2623 2540.5 2606.5 2518.75 2585.75 C 2497 2565 2477.5 2540 2466 2516 C 2461.5 2506 2445.5 2443.5 2423.5 2350.75 C 2401.5 2258 2373.5 2135 2345 2004 C 2316.5 1873.5 2289.75 1753.5 2269.625 1665.375 C 2249.5 1577.25 2236 1521 2234 1518 C 2229 1510 2226.75 1505 2211.25 1567.875 C 2195.75 1630.75 2167 1761.5 2109 2025 C 2081.5 2151.5 2054.25 2271 2032.625 2361.75 C 2011 2452.5 1995 2514.5 1990 2526 C 1980.5 2548 1964.5 2569 1943.75 2587.5 C 1923 2606 1897.5 2622 1869 2634 C 1852.5 2641 1843.75 2645.25 1839 2654.125 C 1834.25 2663 1833.5 2676.5 1833 2702 C 1831.5 2747.5 1825 2780 1800.75 2820.125 C 1776.5 2860.25 1734.5 2908 1662 2984 L 1622 3026.5 L 1582 3069 L 1563.5 3020.5 L 1545 2972 C 1521.5 2911 1492.75 2830.5 1469.875 2763.125 C 1447 2695.75 1430 2641.5 1430 2633 C 1430 2629.5 1437.25 2617.5 1448.875 2601 C 1460.5 2584.5 1476.5 2563.5 1494 2542 L 1526 2502.5 L 1558 2463 L 1531 2436 L 1504 2409 C 1453.5 2359.5 1401.25 2290.5 1348.625 2204.625 C 1296 2118.75 1243 2016 1191 1899 C 1147.5 1800 1125.25 1755.5 1127 1728.75 C 1128.75 1702 1154.5 1693 1207 1665 C 1231 1652 1254.25 1639 1272.375 1628.625 C 1290.5 1618.25 1303.5 1610.5 1307 1608 C 1311.5 1604.5 1310.25 1597 1302 1583.375 C 1293.75 1569.75 1278.5 1550 1255 1522 C 1237 1500.5 1220.75 1480.75 1209 1466 C 1197.25 1451.25 1190 1441.5 1190 1440 C 1190 1436 1285.75 1381.25 1382.375 1328 C 1479 1274.75 1576.5 1223 1580 1225 C 1581.5 1226 1587.75 1238.75 1596.75 1258.5 C 1605.75 1278.25 1617.5 1305 1630 1334 C 1642 1363 1653.25 1389.25 1661.625 1408 C 1670 1426.75 1675.5 1438 1676 1437 C 1677.5 1436 1708 1328.5 1749 1181.875 C 1790 1035.25 1841.5 849.5 1885 692 C 1895 655 1903.5 621 1909.25 596 C 1915 571 1918 555 1917 554 C 1914.5 551 1875.75 571.25 1827.375 599.125 C 1779 627 1721 662.5 1680 690 C 1656.5 706 1640.5 719.25 1624.125 739.5 C 1607.75 759.75 1591 787 1566 831 C 1526 902 1495.75 950 1467.375 984.875 C 1439 1019.75 1412.5 1041.5 1380 1060 C 1365 1069 1321 1094.25 1262.125 1127.75 C 1203.25 1161.25 1129.5 1203 1055 1245 C 981 1287 912.5 1326.75 862 1357 C 811.5 1387.25 779 1408 777 1412 C 773 1418 795.5 1482 854.375 1627.75 C 913.25 1773.5 1008.5 2001 1150 2334 C 1165.5 2371 1174.5 2394.75 1178.75 2412.375 C 1183 2430 1182.5 2441.5 1179 2454 C 1170.5 2484 1168.5 2508.5 1178.625 2551.75 C 1188.75 2595 1211 2657 1251 2762 C 1292.5 2872 1356.5 3035.75 1411.375 3174 C 1466.25 3312.25 1512 3425 1517 3433 Z" style="paint-order: stroke; filter: none; fill: url(#gradient-7);"/>
    <path d="M1580 1876 c0 -25 77 -209 93 -224 12 -11 61 -34 109 -51 108 -37 138 -53 184 -93 30 -26 36 -29 31 -13 -3 11 -15 65 -27 120 -25 114 -32 130 -61 146 -18 9 -318 119 -326 119 -2 0 -3 -2 -3 -4z" style="paint-order: stroke; filter: none; fill: url(#gradient-6);"/>
    <path d="M2717 1821 c-86 -31 -164 -64 -173 -73 -13 -13 -73 -226 -74 -262 0 -6 15 4 33 21 38 37 84 60 192 98 44 15 90 37 102 49 12 12 35 59 51 106 17 47 33 93 37 103 4 9 3 17 -1 16 -5 0 -80 -26 -167 -58z" style="paint-order: stroke; filter: none; fill: url(#gradient-5);"/>
    <path d="M 1962.271 -906.371 L 2220.52 -906.371 L 2478.768 -906.371 L 2478.768 -831.287 L 2478.768 -756.203 L 2220.52 -756.203 L 1962.271 -756.203 L 1962.271 -831.287 Z" style="paint-order: stroke; filter: none; fill: url(#gradient-8);" transform="matrix(1, 0, 0, -1, 0, 0)"/>
    <path d="M 2480.268 -907.871 L 2480.268 -754.703 L 1960.771 -754.703 L 1960.771 -907.871 Z M 1961.771 -755.703 L 2479.268 -755.703 L 2479.268 -906.871 L 1961.771 -906.871 Z" style="fill: none;" transform="matrix(1, 0, 0, -1, 0, 0)"/>
    <path d="M 2480.268 153.168 L 2480.268 0 L 1960.771 0 L 1960.771 153.168 L 2480.268 153.168 Z M 1961.771 1 L 2479.268 1 L 2479.268 152.168 L 1961.771 152.168 L 1961.771 1 Z" style="fill: url(#gradient-4);"/>
  </g>
</svg>